<svg width="24" height="24" viewBox="0 0 24 24" fill="none" xmlns="http://www.w3.org/2000/svg">
<path fill-rule="evenodd" clip-rule="evenodd" d="M3.59998 6.00005C3.59998 5.68179 3.7264 5.37656 3.95145 5.15152C4.17649 4.92648 4.48172 4.80005 4.79998 4.80005H19.2C19.5182 4.80005 19.8235 4.92648 20.0485 5.15152C20.2735 5.37656 20.4 5.68179 20.4 6.00005C20.4 6.31831 20.2735 6.62353 20.0485 6.84858C19.8235 7.07362 19.5182 7.20005 19.2 7.20005H4.79998C4.48172 7.20005 4.17649 7.07362 3.95145 6.84858C3.7264 6.62353 3.59998 6.31831 3.59998 6.00005Z" fill="black"/>
<path fill-rule="evenodd" clip-rule="evenodd" d="M3.59998 12C3.59998 11.6818 3.7264 11.3766 3.95145 11.1515C4.17649 10.9265 4.48172 10.8 4.79998 10.8H12C12.3182 10.8 12.6235 10.9265 12.8485 11.1515C13.0735 11.3766 13.2 11.6818 13.2 12C13.2 12.3183 13.0735 12.6235 12.8485 12.8486C12.6235 13.0736 12.3182 13.2001 12 13.2001H4.79998C4.48172 13.2001 4.17649 13.0736 3.95145 12.8486C3.7264 12.6235 3.59998 12.3183 3.59998 12Z" fill="black"/>
<path fill-rule="evenodd" clip-rule="evenodd" d="M3.59998 18C3.59998 17.6818 3.7264 17.3766 3.95145 17.1515C4.17649 16.9265 4.48172 16.8 4.79998 16.8H19.2C19.5182 16.8 19.8235 16.9265 20.0485 17.1515C20.2735 17.3766 20.4 17.6818 20.4 18C20.4 18.3183 20.2735 18.6235 20.0485 18.8486C19.8235 19.0736 19.5182 19.2001 19.2 19.2001H4.79998C4.48172 19.2001 4.17649 19.0736 3.95145 18.8486C3.7264 18.6235 3.59998 18.3183 3.59998 18Z" fill="black"/>
</svg>
